<svg width="20" height="20" viewBox="0 0 20 20" fill="none" xmlns="http://www.w3.org/2000/svg">
<path d="M9.90476 0.00773621C12.6402 0.00773621 15.1164 1.11815 16.9077 2.91339C18.6991 4.70863 19.8095 7.18482 19.8095 9.92411C19.8095 12.6595 18.6991 15.1396 16.9077 16.9348C15.1164 18.7301 12.6402 19.8405 9.90476 19.8405C7.16935 19.8405 4.69315 18.7301 2.90179 16.9348C1.11042 15.1396 0 12.6634 0 9.92411C0 7.18869 1.11042 4.70863 2.90179 2.91339C4.69315 1.11815 7.16935 0.00773621 9.90476 0.00773621ZM16.4705 3.34672C14.7914 1.66369 12.4699 0.626784 9.90476 0.626784C7.33958 0.626784 5.01816 1.66756 3.33899 3.34672C1.65982 5.02976 0.619048 7.35119 0.619048 9.92024C0.619048 12.4893 1.65982 14.8107 3.33899 16.4937C5.01816 18.1768 7.33958 19.2137 9.90476 19.2137C12.4699 19.2137 14.7914 18.1729 16.4705 16.4937C18.1497 14.8107 19.1905 12.4893 19.1905 9.92024C19.1905 7.35119 18.1497 5.02976 16.4705 3.34672Z" fill="black"/>
<path d="M17.5616 16.2074C16.6369 17.3333 15.4723 18.2503 14.1453 18.881C12.8607 19.4923 11.4214 19.8327 9.90478 19.8327C8.38812 19.8327 6.94883 19.4923 5.66431 18.881C4.32949 18.2464 3.15716 17.3217 2.23246 16.1881C2.12413 16.0565 2.14347 15.8592 2.27502 15.7509C2.30984 15.7238 2.34466 15.7045 2.38335 15.6929C3.56341 15.2131 4.7899 14.8455 6.05508 14.594C7.30478 14.3503 8.58931 14.2226 9.90478 14.2226C11.2203 14.2226 12.5048 14.3503 13.7545 14.594C15.0313 14.8455 16.2655 15.217 17.4533 15.7045C17.6119 15.7702 17.6893 15.9482 17.6235 16.1068C17.6081 16.1455 17.5848 16.1765 17.5578 16.2036L17.5616 16.2074ZM13.8822 18.3199C15.0042 17.786 16.0024 17.0354 16.8226 16.1185C15.8012 15.7277 14.7334 15.4182 13.6345 15.2054C12.4274 14.9693 11.1777 14.8455 9.90478 14.8455C8.628 14.8455 7.38216 14.9693 6.17502 15.2054C5.07621 15.422 4.01222 15.7277 2.98693 16.1185C3.80716 17.0354 4.80538 17.786 5.9274 18.3199C7.13068 18.8926 8.48097 19.2137 9.90478 19.2137C11.3286 19.2137 12.6789 18.8926 13.8822 18.3199Z" fill="black"/>
<path d="M16.8226 3.71815C16.0024 2.80119 15.0042 2.0506 13.8821 1.51667C12.6789 0.944048 11.3286 0.622917 9.90476 0.622917C8.48095 0.622917 7.13065 0.944048 5.92738 1.51667C4.80535 2.0506 3.80714 2.80119 2.9869 3.71815C4.00833 4.10893 5.07619 4.41845 6.175 4.63125C7.38214 4.86726 8.63184 4.99107 9.90476 4.99107C11.1815 4.99107 12.4274 4.86726 13.6345 4.63125C14.7333 4.41458 15.7973 4.10893 16.8226 3.71815ZM14.1452 0.955655C15.4723 1.58631 16.6369 2.50327 17.5616 3.62917C17.5887 3.65625 17.6119 3.69107 17.6274 3.72589C17.6932 3.88452 17.6158 4.06637 17.4571 4.12827C16.2693 4.61191 15.0312 4.9872 13.7583 5.23869C12.5086 5.48244 11.2241 5.61012 9.90863 5.61012C8.59315 5.61012 7.30863 5.48244 6.05893 5.23869C4.79375 4.99107 3.56726 4.61964 2.3872 4.13988C2.34851 4.12827 2.31369 4.10893 2.27887 4.08185C2.14732 3.97351 2.12797 3.78006 2.23631 3.64464C3.16101 2.51101 4.33333 1.58631 5.66815 0.951786C6.95268 0.340476 8.39196 0 9.90863 0C11.4253 0 12.8646 0.340476 14.1491 0.951786L14.1452 0.955655Z" fill="black"/>
<path d="M9.90476 0.00773621C11.4253 0.00773621 12.7833 1.14524 13.7545 2.9869C14.6908 4.76666 15.2711 7.21964 15.2711 9.92411C15.2711 12.6247 14.6908 15.0777 13.7545 16.8613C12.7872 18.703 11.4253 19.8405 9.90476 19.8405C8.38422 19.8405 7.02619 18.703 6.05506 16.8613C5.11875 15.0815 4.53839 12.6286 4.53839 9.92411C4.53839 7.22351 5.11875 4.77053 6.05506 2.9869C7.02232 1.14524 8.38422 0.00773621 9.90476 0.00773621ZM13.2051 3.27321C12.3423 1.63661 11.1738 0.626784 9.90476 0.626784C8.63184 0.626784 7.46339 1.63661 6.60446 3.27321C5.71071 4.96786 5.16131 7.32024 5.16131 9.92024C5.16131 12.5241 5.71458 14.8726 6.60446 16.5673C7.46726 18.2039 8.63571 19.2137 9.90476 19.2137C11.1777 19.2137 12.3461 18.2039 13.2051 16.5673C14.0988 14.8726 14.6482 12.5202 14.6482 9.92024C14.6482 7.31637 14.0949 4.96786 13.2051 3.27321Z" fill="black"/>
<path d="M0.309524 9.61071C0.139286 9.61071 0 9.75 0 9.92024C0 10.0905 0.139286 10.2298 0.309524 10.2298H19.5C19.6702 10.2298 19.8095 10.0905 19.8095 9.92024C19.8095 9.75 19.6702 9.61071 19.5 9.61071H0.309524Z" fill="black"/>
</svg>
