<svg width="22" height="24" viewBox="0 0 22 24" fill="none" xmlns="http://www.w3.org/2000/svg">
<path d="M22 10.2889V6.09957C19.9681 6.09957 18.4174 5.57591 17.4167 4.55808C16.3896 3.39647 15.8142 1.92542 15.7896 0.398279V0.0958821L11.6875 0V17.0154C11.5468 17.7578 11.1735 18.4406 10.6182 18.9717C10.0628 19.5028 9.35201 19.8565 8.58179 19.9853C7.81157 20.114 7.01899 20.0114 6.31106 19.6914C5.60312 19.3714 5.01392 18.8494 4.62299 18.1958C4.23206 17.5423 4.05822 16.7887 4.12495 16.0367C4.19168 15.2847 4.49576 14.5706 4.99614 13.9908C5.49652 13.411 6.1691 12.9934 6.9231 12.7943C7.67709 12.5953 8.47618 12.6244 9.2125 12.8777V8.82114C8.78319 8.75322 8.34892 8.71869 7.91389 8.71788C6.34867 8.71788 4.8186 9.16602 3.51717 10.0056C2.21574 10.8452 1.2014 12.0386 0.602412 13.4348C0.00342883 14.8311 -0.153292 16.3674 0.152067 17.8496C0.457426 19.3319 1.21115 20.6934 2.31793 21.762C3.4247 22.8306 4.83482 23.5583 6.36997 23.8532C7.90511 24.148 9.49633 23.9967 10.9424 23.4184C12.3885 22.84 13.6245 21.8606 14.494 20.6041C15.3636 19.3475 15.8278 17.8702 15.8278 16.3589C15.8269 16.0458 15.8065 15.733 15.7667 15.4222V8.67363C17.6319 9.79836 19.8021 10.3607 22 10.2889Z" fill="white"/>
</svg>
